<?xml version="1.0" standalone="no"?>
<!DOCTYPE svg PUBLIC "-//W3C//DTD SVG 20010904//EN"
 "http://www.w3.org/TR/2001/REC-SVG-20010904/DTD/svg10.dtd">
<svg version="1.0" xmlns="http://www.w3.org/2000/svg"
 width="294.000000pt" height="294.000000pt" viewBox="0 0 294.000000 294.000000"
 preserveAspectRatio="xMidYMid meet">
<metadata>
Created by potrace 1.11, written by Peter Selinger 2001-2013
</metadata>
<g transform="translate(0.000000,294.000000) scale(0.100000,-0.100000)"
fill="#000000" stroke="none">
<path d="M1684 2585 c-158 -49 -271 -178 -321 -366 -17 -66 -25 -307 -11 -379
30 -166 129 -327 255 -413 18 -12 33 -27 33 -32 0 -10 -31 -72 -88 -179 -85
-158 -251 -357 -344 -410 -65 -38 -150 -45 -195 -17 -38 24 -91 93 -100 130
-3 14 -9 31 -14 36 -10 14 -45 191 -55 280 -4 39 -8 178 -8 310 1 219 4 307
20 435 3 25 7 63 9 85 5 64 15 150 19 171 35 192 30 256 -24 294 -41 29 -149
37 -207 15 -41 -16 -87 -70 -89 -105 0 -8 -6 -33 -12 -55 -26 -93 -57 -334
-66 -523 -2 -40 -6 -75 -9 -78 -3 -3 -2 -16 2 -28 5 -11 6 -29 2 -38 -11 -31
-2 -376 14 -528 21 -206 79 -416 150 -543 122 -217 349 -277 601 -157 128 62
301 218 426 385 33 44 65 87 71 95 20 25 99 161 142 243 40 78 40 78 75 72
144 -22 331 -27 379 -11 67 22 112 112 96 188 -10 42 -53 55 -205 62 -114 5
-200 14 -200 20 0 0 13 42 29 91 32 97 51 165 57 205 33 193 35 206 35 320 0
113 -3 136 -27 207 -31 90 -100 170 -177 204 -61 27 -197 34 -263 14z m-811
-104 c19 -32 22 -56 7 -46 -6 4 -8 10 -5 15 2 4 -5 19 -16 34 -11 14 -17 26
-12 26 5 0 16 -13 26 -29z m923 -188 c11 -7 27 -32 34 -54 20 -60 18 -217 -5
-319 -3 -14 -7 -34 -9 -45 -18 -80 -62 -215 -72 -215 -32 0 -127 148 -136 212
-2 13 -6 28 -9 33 -13 23 -1 231 16 280 39 115 107 155 181 108z"/>
</g>
</svg>
